<svg aria-hidden="true" style="position: absolute; width: 0; height: 0; overflow: hidden;" version="1.1" xmlns="http://www.w3.org/2000/svg" xmlns:xlink="http://www.w3.org/1999/xlink">
	<defs>
		<symbol id="icon-x-modal" viewBox="0 0 32 32">
      <path stroke-linejoin="round" stroke-linecap="round" stroke-miterlimit="4" stroke-width="2.4615" d="M24 8l-16 16"></path>
      <path stroke-linejoin="round" stroke-linecap="round" stroke-miterlimit="4" stroke-width="2.4615" d="M8 8l16 16"></path>
    </symbol>
    <symbol id="icon-arrow-left" viewBox="0 0 24 24">
      <path fill="currentColor" d="M20 9v6h-8v4.84L4.16 12L12 4.16V9z"/>
    </symbol>
    <symbol id="icon-arrow-right" viewBox="0 0 24 24">
      <path fill="currentColor" d="M4 15V9h8V4.16L19.84 12L12 19.84V15z"/>
    </symbol>
    <symbol id="icon-arrow-bottom" viewBox="0 0 32 32">
      <path stroke-linejoin="miter" stroke-linecap="butt" stroke-miterlimit="4" stroke-width="0.6" d="M31.744 8.519c0-0.269-0.106-0.544-0.313-0.75-0.412-0.412-1.087-0.412-1.5 0l-14.119 14.119-13.912-13.912c-0.413-0.412-1.087-0.412-1.5 0s-0.412 1.088 0 1.5l14.662 14.669c0.412 0.412 1.087 0.412 1.5 0l14.869-14.869c0.213-0.213 0.313-0.481 0.313-0.756z"></path>
    </symbol>
	</defs>
</svg>
